# xmcd
#
# Track frame offsets: 
#        150
#        18943
#        34161
#        46164
#        60657
#        83212
#        103919
#        115794
#        131458
#        149219
#        166815
#        179305
#
# Disc length: 2689 seconds
#
# Revision: 0
# Processed by: cddbd v1.5.2PL0 Copyright (c) Steve Scherf et al.
# Submitted via: ExactAudioCopy v0.95b3
#
DISCID=a00a7f0c
DTITLE=Burton Cumming  - Burton Cummings (1976)
DYEAR=1900
DGENRE=
TTITLE0=Burton Cummings - 01 I'm Scared
TTITLE1=Burton Cummings - 02 Your Back Yard
TTITLE2=Burton Cummings - 03 Nothing Rhymned
TTITLE3=Burton Cummings - 04 That's Enough
TTITLE4=Burton Cummings - 05 Is It Really Right
TTITLE5=Burton Cummings - 06 Stand Tall
TTITLE6=Burton Cummings - 07 Niki Hokey
TTITLE7=Burton Cummings - 08 Sugartime Flashback
TTITLE8=Burton Cummings - 09 Burch Magic
TTITLE9=Burton Cummings - 10 You Ain't Seen Nothin' Yet
TTITLE10=Burton Cummings - 11 Blossom (demo)
TTITLE11=Burton Cummings - 12 I'm Scared (demo)
EXTD=
EXTT0=
EXTT1=
EXTT2=
EXTT3=
EXTT4=
EXTT5=
EXTT6=
EXTT7=
EXTT8=
EXTT9=
EXTT10=
EXTT11=
PLAYORDER=
